<svg width="192" height="240" viewBox="0 0 192 240" fill="none" xmlns="http://www.w3.org/2000/svg">
<path d="M96.0004 96C122.52 96 144 74.52 144 48C144 21.48 122.52 0 96.0004 0C69.4805 0 48.0006 21.48 48.0006 48C48.0006 74.52 69.4805 96 96.0004 96ZM96.0004 24C109.2 24 120 34.8 120 48C120 61.2 109.2 72 96.0004 72C82.8004 72 72.0005 61.2 72.0005 48C72.0005 34.8 82.8004 24 96.0004 24ZM172.68 126.72C152.52 116.4 126.36 108 96.0004 108C65.6405 108 39.4806 116.4 19.3207 126.72C13.4654 129.736 8.56036 134.315 5.14995 139.95C1.73955 145.584 -0.0427841 152.054 0.00077988 158.64V240H24.0007V158.64C24.0007 154.08 26.4007 150 30.2407 148.08C44.5206 140.76 67.5605 132 96.0004 132C105.12 132 113.64 132.84 121.56 134.4L102.96 174H69.0005C50.7606 174 36.0006 188.76 36.0006 207C36.0006 225.24 50.7606 240 69.0005 240H168C181.2 240 192 229.2 192 216V158.64C192 145.2 184.68 132.84 172.68 126.72ZM83.2804 216H69.0005C64.0805 216 60.0005 211.92 60.0005 207C60.0005 202.08 64.0805 198 69.0005 198H91.6804L83.2804 216ZM168 216H109.8L145.08 140.76C151.56 143.16 157.2 145.68 161.88 148.08C165.6 150 168 154.08 168 158.64V216Z" fill="white"/>
</svg>
