<svg width="261" height="190" viewBox="0 0 261 190" fill="none" xmlns="http://www.w3.org/2000/svg">
<path d="M201.682 172.188C211.529 172.188 219.477 164.231 219.477 154.375C219.477 144.519 211.529 136.562 201.682 136.562C191.835 136.562 183.886 144.519 183.886 154.375C183.886 164.231 191.835 172.188 201.682 172.188ZM219.477 65.3125H189.818V95H242.73L219.477 65.3125ZM59.3182 172.188C69.165 172.188 77.1136 164.231 77.1136 154.375C77.1136 144.519 69.165 136.562 59.3182 136.562C49.4714 136.562 41.5227 144.519 41.5227 154.375C41.5227 164.231 49.4714 172.188 59.3182 172.188ZM225.409 47.5L261 95V154.375H237.273C237.273 174.087 221.375 190 201.682 190C181.988 190 166.091 174.087 166.091 154.375H94.9091C94.9091 174.087 79.0118 190 59.3182 190C39.6245 190 23.7273 174.087 23.7273 154.375H0V23.75C0 10.5687 10.5586 0 23.7273 0H189.818V47.5H225.409ZM23.7273 23.75V130.625H32.7436C39.2686 123.381 48.7595 118.75 59.3182 118.75C69.8768 118.75 79.3677 123.381 85.8927 130.625H166.091V23.75H23.7273ZM106.773 35.625L148.295 77.1875L106.773 118.75V89.0625H47.4545V65.3125H106.773V35.625Z" fill="white"/>
</svg>
