<svg width="243" height="295" viewBox="0 0 243 295" fill="#FFFFF" xmlns="http://www.w3.org/2000/svg">
<path fill-rule="evenodd" clip-rule="evenodd" d="M25.5487 212.408L25.272 213.091L22.113 221.045L45.198 229L56.619 201.279C62.451 203.448 68.526 204.895 72.9 204.895C206.55 204.895 243 0 243 0C234.252 17.3558 188.325 24.1053 140.454 30.3726C121.5 33.0242 102.303 36.1579 85.05 39.2916C24.3 51.3442 0 102.447 0 126.553C0 150.658 21.384 171.871 21.384 171.871C60.75 60.2632 182.25 60.2632 182.25 60.2632C77.9105 83.3173 50.0242 152.067 25.5487 212.408ZM119.987 272.32V294H127.587V272.32H119.987ZM120.427 268.76C121.28 269.533 122.4 269.92 123.787 269.92C125.2 269.92 126.32 269.533 127.147 268.76C128 267.96 128.427 266.96 128.427 265.76C128.427 264.613 128 263.68 127.147 262.96C126.294 262.213 125.174 261.84 123.787 261.84C122.4 261.84 121.28 262.227 120.427 263C119.574 263.773 119.147 264.733 119.147 265.88C119.147 267.027 119.574 267.987 120.427 268.76ZM166.402 266V294H174.322V266H166.402ZM193.716 271.96C195.396 271.96 196.916 272.307 198.276 273C199.636 273.667 200.703 274.707 201.476 276.12C202.276 277.533 202.676 279.36 202.676 281.6V294H195.076V282.84C195.076 281.293 194.756 280.173 194.116 279.48C193.503 278.76 192.636 278.4 191.516 278.4C190.716 278.4 189.983 278.587 189.316 278.96C188.65 279.307 188.13 279.853 187.756 280.6C187.383 281.347 187.196 282.32 187.196 283.52V294H179.596V272.32H186.836V274.693C187.42 274.074 188.086 273.563 188.836 273.16C190.276 272.36 191.903 271.96 193.716 271.96ZM212.361 292.92C214.255 293.88 216.401 294.36 218.801 294.36C221.255 294.36 223.375 293.84 225.161 292.8C226.948 291.76 228.215 290.293 228.961 288.4L223.081 285.4C222.575 286.413 221.948 287.16 221.201 287.64C220.455 288.093 219.641 288.32 218.761 288.32C217.881 288.32 217.081 288.12 216.361 287.72C215.641 287.32 215.068 286.733 214.641 285.96C214.241 285.187 214.041 284.24 214.041 283.12C214.041 282.027 214.241 281.107 214.641 280.36C215.068 279.587 215.641 279 216.361 278.6C217.081 278.2 217.881 278 218.761 278C219.641 278 220.455 278.24 221.201 278.72C221.948 279.173 222.575 279.907 223.081 280.92L228.961 277.92C228.215 276.027 226.948 274.56 225.161 273.52C223.375 272.48 221.255 271.96 218.801 271.96C216.401 271.96 214.255 272.44 212.361 273.4C210.495 274.333 209.028 275.64 207.961 277.32C206.895 279 206.361 280.933 206.361 283.12C206.361 285.307 206.895 287.253 207.961 288.96C209.028 290.64 210.495 291.96 212.361 292.92ZM232.564 293.08C233.444 293.933 234.524 294.36 235.804 294.36C237.084 294.36 238.164 293.933 239.044 293.08C239.924 292.227 240.364 291.147 240.364 289.84C240.364 288.48 239.924 287.4 239.044 286.6C238.164 285.773 237.084 285.36 235.804 285.36C234.524 285.36 233.444 285.773 232.564 286.6C231.684 287.4 231.244 288.48 231.244 289.84C231.244 291.147 231.684 292.227 232.564 293.08ZM140.406 294.36C138.566 294.36 136.766 294.147 135.006 293.72C133.273 293.293 131.873 292.76 130.806 292.12L133.086 286.92C134.099 287.533 135.286 288.027 136.646 288.4C138.006 288.747 139.339 288.92 140.646 288.92C141.926 288.92 142.806 288.787 143.286 288.52C143.793 288.253 144.046 287.893 144.046 287.44C144.046 287.013 143.806 286.707 143.326 286.52C142.873 286.307 142.259 286.147 141.486 286.04C140.739 285.933 139.913 285.813 139.006 285.68C138.099 285.547 137.179 285.373 136.246 285.16C135.339 284.92 134.499 284.573 133.726 284.12C132.979 283.64 132.379 283 131.926 282.2C131.473 281.4 131.246 280.387 131.246 279.16C131.246 277.773 131.646 276.547 132.446 275.48C133.273 274.387 134.473 273.533 136.046 272.92C137.619 272.28 139.539 271.96 141.806 271.96C143.326 271.96 144.859 272.12 146.406 272.44C147.979 272.733 149.299 273.187 150.366 273.8L148.086 278.96C147.019 278.347 145.953 277.933 144.886 277.72C143.819 277.48 142.806 277.36 141.846 277.36C140.566 277.36 139.659 277.507 139.126 277.8C138.619 278.093 138.366 278.453 138.366 278.88C138.366 279.307 138.593 279.64 139.046 279.88C139.499 280.093 140.099 280.267 140.846 280.4C141.619 280.507 142.459 280.627 143.366 280.76C144.273 280.867 145.179 281.04 146.086 281.28C147.019 281.52 147.859 281.88 148.606 282.36C149.379 282.813 149.993 283.44 150.446 284.24C150.899 285.013 151.126 286.013 151.126 287.24C151.126 288.573 150.713 289.773 149.886 290.84C149.086 291.907 147.886 292.76 146.286 293.4C144.713 294.04 142.753 294.36 140.406 294.36ZM107.448 294V264.32H115.048V294H107.448ZM95.5706 291.196V294H102.651V281.96C102.651 278.52 101.677 276 99.7306 274.4C97.8106 272.773 95.0906 271.96 91.5706 271.96C89.8639 271.96 88.1439 272.187 86.4106 272.64C84.7039 273.067 83.2373 273.68 82.0106 274.48L84.5706 279.64C85.3173 279.053 86.2239 278.6 87.2906 278.28C88.3573 277.933 89.4106 277.76 90.4506 277.76C92.0506 277.76 93.2106 278.093 93.9306 278.76C94.6094 279.342 94.9797 280.155 95.0414 281.2H90.7306C88.4906 281.2 86.6639 281.467 85.2506 282C83.8373 282.507 82.7839 283.253 82.0906 284.24C81.4239 285.2 81.0906 286.347 81.0906 287.68C81.0906 288.933 81.3973 290.067 82.0106 291.08C82.6506 292.093 83.5706 292.893 84.7706 293.48C85.9706 294.067 87.4373 294.36 89.1706 294.36C91.0639 294.36 92.5839 293.987 93.7306 293.24C94.5181 292.721 95.1314 292.04 95.5706 291.196ZM95.0506 287.04V285.16H91.7706C90.5439 285.16 89.6773 285.36 89.1706 285.76C88.6906 286.16 88.4506 286.693 88.4506 287.36C88.4506 288.027 88.7039 288.56 89.2106 288.96C89.7173 289.36 90.4106 289.56 91.2906 289.56C92.1173 289.56 92.8639 289.36 93.5306 288.96C94.2239 288.533 94.7306 287.893 95.0506 287.04ZM62.8993 294V288.697L65.1542 286.4L71.2193 294H80.4193L70.6776 281.595L79.6593 272.32H70.6593L62.8993 279.869V264.32H55.2993V294H62.8993ZM34.2753 292.92C36.1953 293.88 38.4353 294.36 40.9953 294.36C43.0753 294.36 44.8753 294.067 46.3953 293.48C47.9153 292.867 49.1953 291.987 50.2353 290.84L46.2353 286.68C45.4886 287.32 44.7286 287.8 43.9553 288.12C43.2086 288.413 42.3019 288.56 41.2353 288.56C40.0886 288.56 39.1019 288.36 38.2753 287.96C37.4486 287.533 36.8086 286.933 36.3553 286.16C36.1716 285.827 36.0275 285.467 35.9229 285.08H51.6753C51.7019 284.787 51.7286 284.467 51.7553 284.12C51.7819 283.773 51.7953 283.467 51.7953 283.2C51.7953 280.8 51.2753 278.76 50.2353 277.08C49.1953 275.4 47.7953 274.133 46.0353 273.28C44.2753 272.4 42.3286 271.96 40.1953 271.96C37.9286 271.96 35.8886 272.44 34.0753 273.4C32.2619 274.333 30.8353 275.653 29.7953 277.36C28.7819 279.04 28.2753 280.96 28.2753 283.12C28.2753 285.28 28.7953 287.213 29.8353 288.92C30.9019 290.6 32.3819 291.933 34.2753 292.92ZM44.6849 281.08H35.8118C35.9025 280.568 36.0569 280.101 36.2753 279.68C36.6486 278.933 37.1686 278.36 37.8353 277.96C38.5286 277.56 39.3286 277.36 40.2353 277.36C41.1419 277.36 41.9286 277.56 42.5953 277.96C43.2886 278.36 43.8219 278.92 44.1953 279.64C44.4353 280.072 44.5985 280.552 44.6849 281.08ZM12.7201 294V284.4H25.0801V278.28H12.7201V272.12H26.7601V266H4.80005V294H12.7201Z" fill="black"/>
</svg>
