<svg width="62" height="62" viewBox="0 0 62 62" fill="none" xmlns="http://www.w3.org/2000/svg">
<path d="M11.935 46.81C14.57 44.795 17.515 43.2068 20.77 42.0453C24.025 40.8838 27.435 40.3021 31 40.3C34.565 40.2979 37.975 40.8797 41.23 42.0453C44.485 43.2109 47.43 44.7991 50.065 46.81C51.8733 44.6917 53.2817 42.2892 54.2903 39.6025C55.2988 36.9158 55.802 34.0483 55.8 31C55.8 24.1283 53.3851 18.2766 48.5553 13.4447C43.7255 8.61283 37.8737 6.19793 31 6.2C24.1263 6.20206 18.2745 8.618 13.4447 13.4478C8.6149 18.2776 6.2 24.1283 6.2 31C6.2 34.0483 6.70427 36.9158 7.7128 39.6025C8.72133 42.2892 10.1287 44.6917 11.935 46.81ZM31 34.1C27.9517 34.1 25.3807 33.0543 23.2872 30.9628C21.1937 28.8713 20.1479 26.3004 20.15 23.25C20.1521 20.1996 21.1988 17.6287 23.2903 15.5372C25.3818 13.4457 27.9517 12.4 31 12.4C34.0483 12.4 36.6192 13.4468 38.7128 15.5403C40.8063 17.6338 41.852 20.2037 41.85 23.25C41.8479 26.2963 40.8022 28.8672 38.7128 30.9628C36.6234 33.0584 34.0524 34.1041 31 34.1ZM31 62C26.7117 62 22.6817 61.1857 18.91 59.5572C15.1383 57.9286 11.8575 55.7204 9.0675 52.9325C6.2775 50.1446 4.06927 46.8637 2.4428 43.09C0.816337 39.3163 0.00207059 35.2863 3.92405e-06 31C-0.00206274 26.7137 0.812204 22.6837 2.4428 18.91C4.0734 15.1363 6.28163 11.8554 9.0675 9.0675C11.8534 6.27957 15.1342 4.07133 18.91 2.4428C22.6858 0.814267 26.7158 0 31 0C35.2842 0 39.3142 0.814267 43.09 2.4428C46.8658 4.07133 50.1466 6.27957 52.9325 9.0675C55.7183 11.8554 57.9276 15.1363 59.5603 18.91C61.1929 22.6837 62.0062 26.7137 62 31C61.9938 35.2863 61.1795 39.3163 59.5572 43.09C57.9348 46.8637 55.7266 50.1446 52.9325 52.9325C50.1383 55.7204 46.8575 57.9297 43.09 59.5603C39.3224 61.1909 35.2924 62.0041 31 62ZM31 55.8C33.7383 55.8 36.3216 55.4001 38.75 54.6003C41.1783 53.8005 43.4 52.6504 45.415 51.15C43.4 49.6517 41.1783 48.5026 38.75 47.7028C36.3216 46.903 33.7383 46.5021 31 46.5C28.2617 46.4979 25.6783 46.8989 23.25 47.7028C20.8217 48.5067 18.6 49.6558 16.585 51.15C18.6 52.6483 20.8217 53.7984 23.25 54.6003C25.6783 55.4022 28.2617 55.8021 31 55.8ZM31 27.9C32.3433 27.9 33.4541 27.4608 34.3325 26.5825C35.2108 25.7042 35.65 24.5933 35.65 23.25C35.65 21.9067 35.2108 20.7958 34.3325 19.9175C33.4541 19.0392 32.3433 18.6 31 18.6C29.6567 18.6 28.5458 19.0392 27.6675 19.9175C26.7892 20.7958 26.35 21.9067 26.35 23.25C26.35 24.5933 26.7892 25.7042 27.6675 26.5825C28.5458 27.4608 29.6567 27.9 31 27.9Z" fill="white"/>
</svg>
