<svg width="135" height="135" viewBox="0 0 135 135" fill="none" xmlns="http://www.w3.org/2000/svg">
<path d="M62.3077 62.3077V5.19231C62.3077 3.81522 62.8547 2.49454 63.8285 1.52079C64.8022 0.547045 66.1229 0 67.5 0C68.8771 0 70.1978 0.547045 71.1715 1.52079C72.1453 2.49454 72.6923 3.81522 72.6923 5.19231V62.3077H129.808C131.185 62.3077 132.505 62.8547 133.479 63.8285C134.453 64.8022 135 66.1229 135 67.5C135 68.8771 134.453 70.1978 133.479 71.1715C132.505 72.1453 131.185 72.6923 129.808 72.6923H72.6923V129.808C72.6923 131.185 72.1453 132.505 71.1715 133.479C70.1978 134.453 68.8771 135 67.5 135C66.1229 135 64.8022 134.453 63.8285 133.479C62.8547 132.505 62.3077 131.185 62.3077 129.808V72.6923H5.19231C3.81522 72.6923 2.49454 72.1453 1.52079 71.1715C0.547045 70.1978 0 68.8771 0 67.5C0 66.1229 0.547045 64.8022 1.52079 63.8285C2.49454 62.8547 3.81522 62.3077 5.19231 62.3077H62.3077Z" fill="white"/>
</svg>
