<svg width="108" height="98" viewBox="0 0 108 98" fill="none" xmlns="http://www.w3.org/2000/svg">
<path d="M53.9966 80.8173C52.6083 80.8173 51.3991 80.3059 50.3691 79.2832C49.3391 78.2604 48.824 77.0597 48.824 75.6812C48.824 74.3027 49.3391 73.102 50.3691 72.0792C51.3991 71.0564 52.6083 70.5451 53.9966 70.5451C55.385 70.5451 56.5941 71.0564 57.6242 72.0792C58.6542 73.102 59.1692 74.3027 59.1692 75.6812C59.1692 77.0597 58.6542 78.2604 57.6242 79.2832C56.5941 80.3059 55.385 80.8173 53.9966 80.8173ZM53.9966 57.2045C53.0382 57.2045 52.2388 56.8865 51.5984 56.2506C50.958 55.6147 50.6378 54.8232 50.6378 53.876V22.3188C50.6378 21.3716 50.9602 20.5801 51.6051 19.9442C52.25 19.3083 53.0494 18.9881 54.0034 18.9837C54.9573 18.9792 55.7544 19.2994 56.3948 19.9442C57.0353 20.589 57.3555 21.3805 57.3555 22.3188V53.8693C57.3555 54.8165 57.033 55.6103 56.3881 56.2506C55.7432 56.891 54.9438 57.2111 53.9899 57.2111M6.71095 49.5136C6.71095 56.2817 8.15301 62.5162 11.0371 68.2171C13.9168 73.918 19.0222 79.9724 26.3534 86.3803V69.5245C26.3534 68.5818 26.6759 67.7902 27.3208 67.1499C27.9657 66.5095 28.7628 66.1894 29.7123 66.1894C30.6617 66.1894 31.4589 66.5095 32.1037 67.1499C32.7486 67.7902 33.0689 68.5818 33.0644 69.5245V92.6171C33.0644 94.1423 32.5449 95.4208 31.5059 96.4525C30.4669 97.4842 29.1793 98 27.6432 98H4.39336C3.43945 98 2.64004 97.6798 1.99515 97.0395C1.35025 96.3991 1.0278 95.6076 1.0278 94.6649C1.0278 93.7221 1.35025 92.9306 1.99515 92.2902C2.64004 91.6499 3.43721 91.3297 4.38664 91.3297H21.7854C13.7555 84.3881 8.11718 77.5555 4.87031 70.8319C1.62344 64.1082 0 56.9866 0 49.4669C0 39.6438 2.57063 30.7012 7.71189 22.639C12.8531 14.5768 19.5865 8.44904 27.9119 4.25565C28.7897 3.79318 29.6876 3.71758 30.6057 4.02886C31.5238 4.34014 32.1329 4.95381 32.4329 5.86986C32.733 6.78592 32.6882 7.67751 32.2986 8.54465C31.8955 9.4029 31.2685 10.061 30.4176 10.5191C23.2879 14.1344 17.5555 19.4328 13.2204 26.4144C8.88076 33.396 6.71095 41.0957 6.71095 49.5136ZM101.282 48.4864C101.282 41.7183 99.8403 35.4838 96.9561 29.7829C94.0765 24.082 88.9711 18.0276 81.6398 11.6197V28.4755C81.6398 29.4227 81.3174 30.2142 80.6725 30.8501C80.0276 31.486 79.2304 31.8062 78.281 31.8106C77.3316 31.8151 76.5344 31.4949 75.8895 30.8501C75.2446 30.2053 74.9222 29.4138 74.9222 28.4755V5.3896C74.9222 3.85988 75.4439 2.57918 76.4874 1.54751C77.5264 0.515839 78.814 0 80.3501 0H103.607C104.556 0 105.353 0.320175 105.998 0.960523C106.643 1.60087 106.965 2.39464 106.965 3.34182C106.965 4.289 106.643 5.08054 105.998 5.71645C105.353 6.35235 104.556 6.6703 103.607 6.6703H86.2079C94.2377 13.6163 99.8783 20.4489 103.13 27.1681C106.381 33.8873 108.004 41.009 108 48.5331C108 58.3562 105.423 67.2988 100.268 75.361C95.1177 83.4232 88.3889 89.5643 80.0814 93.7844C79.2036 94.2424 78.3056 94.3113 77.3876 93.9912C76.4695 93.671 75.8604 93.0484 75.5604 92.1235C75.2603 91.1985 75.3051 90.3091 75.6947 89.4554C76.0978 88.5971 76.7248 87.939 77.5757 87.4809C84.7053 83.8656 90.4378 78.565 94.7729 71.579C99.1125 64.5974 101.282 56.8999 101.282 48.4864Z" fill="white"/>
</svg>
