<svg width="150" height="133" viewBox="0 0 150 133" fill="none" xmlns="http://www.w3.org/2000/svg">
<path d="M4.16672 133C2.98339 133 1.9945 132.601 1.20006 131.803C0.405613 131.005 0.00561263 130.016 5.70775e-05 128.835C-0.00549847 127.655 0.394502 126.669 1.20006 125.876C2.00561 125.084 2.9945 124.688 4.16672 124.688H145.833C147.017 124.688 148.006 125.086 148.8 125.884C149.594 126.682 149.994 127.672 150 128.852C150.006 130.032 149.606 131.019 148.8 131.811C147.994 132.604 147.006 133 145.833 133H4.16672ZM16.6834 109.974C14.3778 109.974 12.4084 109.168 10.7751 107.555C9.14727 105.943 8.33338 103.981 8.33338 101.67V74.8125C8.33338 72.5016 9.14172 70.5399 10.7584 68.9272C12.375 67.3091 14.3389 66.5 16.65 66.5C18.9612 66.5 20.9306 67.3091 22.5584 68.9272C24.1861 70.5454 25 72.5072 25 74.8125V101.662C25 103.978 24.1917 105.943 22.575 107.555C20.9584 109.174 18.9945 109.983 16.6834 109.983M55.4667 109.983C53.1556 109.983 51.1861 109.174 49.5583 107.555C47.9306 105.937 47.1167 103.976 47.1167 101.67V33.25C47.1167 30.9391 47.9222 28.9774 49.5334 27.3647C51.1611 25.7466 53.1278 24.9375 55.4334 24.9375C57.7389 24.9375 59.7111 25.7466 61.35 27.3647C62.9778 28.9774 63.7917 30.9391 63.7917 33.25V101.662C63.7917 103.978 62.9833 105.943 61.3667 107.555C59.75 109.174 57.7778 109.983 55.4667 109.983ZM94.4167 109.983C92.1111 109.983 90.1417 109.174 88.5083 107.555C86.8806 105.937 86.0667 103.976 86.0667 101.67V58.1875C86.0667 55.8766 86.875 53.9149 88.4917 52.3022C90.1083 50.6841 92.0722 49.875 94.3833 49.875C96.6944 49.875 98.6639 50.6841 100.292 52.3022C101.919 53.9204 102.733 55.8822 102.733 58.1875V101.662C102.733 103.978 101.925 105.943 100.308 107.555C98.6916 109.174 96.7278 109.983 94.4167 109.983ZM133.358 109.983C131.053 109.983 129.083 109.174 127.45 107.555C125.822 105.943 125.008 103.981 125.008 101.67V8.3125C125.008 6.00163 125.817 4.03987 127.433 2.42725C129.05 0.809082 131.014 0 133.325 0C135.636 0 137.606 0.809082 139.233 2.42725C140.861 4.04542 141.672 6.00717 141.667 8.3125V101.662C141.667 103.978 140.858 105.943 139.242 107.555C137.625 109.174 135.669 109.983 133.358 109.983Z" fill="white"/>
</svg>
